<svg width="125" height="122" viewBox="0 0 125 122" fill="none" xmlns="http://www.w3.org/2000/svg">
<g clip-path="url(#clip0_1_285)">
<path d="M62.5 121.922C97.0178 121.922 125 94.8351 125 61.4219C125 28.0086 97.0178 0.921875 62.5 0.921875C27.9822 0.921875 0 28.0086 0 61.4219C0 94.8351 27.9822 121.922 62.5 121.922Z" fill="#FFE1E0"/>
<mask id="mask0_1_285" style="mask-type:alpha" maskUnits="userSpaceOnUse" x="0" y="0" width="132" height="122">
<path d="M66 121.922C102.451 121.922 132 94.8351 132 61.4219C132 28.0086 102.451 0.921875 66 0.921875C29.5492 0.921875 0 28.0086 0 61.4219C0 94.8351 29.5492 121.922 66 121.922Z" fill="#C52026"/>
</mask>
<g mask="url(#mask0_1_285)">
<path d="M90.8169 91.5557H33.7557C30.2687 91.5557 27.4156 88.7938 27.4156 85.4185V48.5948C27.4156 45.2193 30.2687 42.4575 33.7557 42.4575H90.8169C94.3038 42.4575 97.157 45.2193 97.157 48.5948V85.4185C97.157 88.7938 94.3038 91.5557 90.8169 91.5557Z" fill="#FF0808"/>
<path d="M90.8168 93.3967H33.7557C29.1908 93.3967 25.5136 89.837 25.5136 85.4177V48.5946C25.5136 44.1758 29.1908 40.6162 33.7557 40.6162H90.8168C95.3815 40.6162 99.0588 44.1758 99.0588 48.5946V85.4177C99.0588 89.837 95.3815 93.3967 90.8168 93.3967ZM33.7557 44.2985C31.2831 44.2985 29.3176 46.2011 29.3176 48.5946V85.4177C29.3176 87.8117 31.2831 89.7139 33.7557 89.7139H90.8168C93.2892 89.7139 95.2551 87.8117 95.2551 85.4177V48.5946C95.2551 46.2011 93.2892 44.2985 90.8168 44.2985H33.7557Z" fill="#0F0E0E"/>
<path d="M74.9666 44.2986C73.8888 44.2986 73.0647 43.5008 73.0647 42.4575C73.0647 37.0567 68.4996 32.6379 62.9203 32.6379H61.6522C58.4187 32.6379 55.5023 34.0495 53.5368 36.5658C52.9028 37.3636 51.6983 37.5477 50.874 36.934C50.0498 36.3202 49.8596 35.1542 50.4936 34.3563C53.1565 30.9195 57.2141 28.9556 61.6522 28.9556H62.9203C70.5918 28.9556 76.8685 35.0315 76.8685 42.4575C76.8685 43.5008 76.0443 44.2986 74.9666 44.2986Z" fill="#0F0E0E"/>
<path d="M73.6984 62.7104H66.7243V55.9593C66.7243 54.9161 65.9001 54.1182 64.8223 54.1182H59.7502C58.6724 54.1182 57.8482 54.9161 57.8482 55.9593V62.7104H50.8741C49.7962 62.7104 48.972 63.5082 48.972 64.5515V69.4613C48.972 70.5047 49.7962 71.3023 50.8741 71.3023H57.8482V78.0537C57.8482 79.0969 58.6724 79.8947 59.7502 79.8947H64.8223C65.9001 79.8947 66.7243 79.0969 66.7243 78.0537V71.3023H73.6984C74.7762 71.3023 75.6003 70.5047 75.6003 69.4613V64.5515C75.6003 63.5082 74.7762 62.7104 73.6984 62.7104Z" fill="white"/>
</g>
</g>
<defs>
<clipPath id="clip0_1_285">
<rect width="125" height="121" fill="white" transform="translate(0 0.921875)"/>
</clipPath>
</defs>
</svg>
