<svg width="132" height="120" viewBox="0 0 132 120" fill="none" xmlns="http://www.w3.org/2000/svg">
<g clip-path="url(#clip0_1_272)">
<path d="M66 120C102.451 120 132 93.1371 132 60C132 26.8629 102.451 0 66 0C29.5492 0 0 26.8629 0 60C0 93.1371 29.5492 120 66 120Z" fill="#FFE1E0"/>
<mask id="mask0_1_272" style="mask-type:alpha" maskUnits="userSpaceOnUse" x="0" y="0" width="132" height="120">
<path d="M132 60C132 93.1367 102.45 120 66 120C29.5492 120 0 93.1367 0 60C0 26.8629 29.5492 0 66 0C102.45 0 132 26.8629 132 60Z" fill="#F0ECE8"/>
</mask>
<g mask="url(#mask0_1_272)">
<path d="M69.4132 64.7425C67.301 65.4625 64.9247 65.4625 62.7464 64.7425L29.6104 53.1011C27.366 52.3209 27.366 49.3806 29.6104 48.6005L62.8124 37.0191C64.9246 36.299 67.301 36.299 69.4793 37.0191L102.681 48.6005C103.869 49.0205 104.529 49.9807 104.463 50.9408V52.2009L69.4132 64.7425Z" fill="#FF0808"/>
<path d="M103.341 46.9801L70.1393 35.3387C67.565 34.4385 64.6606 34.4385 62.0863 35.3387L28.8843 46.9801C27.102 47.5802 25.9139 49.1404 25.9139 50.8806C25.9139 52.6208 27.102 54.181 28.8843 54.781L37.7293 57.9015V71.8834C37.7293 84.1248 52.9112 85.6848 66.1129 85.6848C79.3143 85.6848 94.4966 84.1248 94.4966 71.8834V60.1817C94.4966 58.8015 93.7699 57.4814 92.5159 56.7013C91.2619 55.9212 89.6779 55.7412 88.2259 56.2213L68.6872 63.0621C67.0369 63.6622 65.1227 63.6622 63.4725 63.0621L30.3364 51.4206C30.0064 51.3006 29.9403 51.0606 29.9403 50.8806C29.9403 50.7006 30.0064 50.4606 30.3364 50.3405L63.5385 38.7591C65.1887 38.159 67.1029 38.159 68.7532 38.7591L101.955 50.3405C102.351 50.4606 102.483 50.7606 102.483 50.9406C102.483 51.0006 102.483 51.0006 102.483 51.0606V59.8817C102.483 60.9018 103.341 61.6819 104.463 61.6819C105.585 61.6819 106.444 60.9018 106.444 59.8817V51.0606C106.444 49.2604 105.255 47.6402 103.341 46.9801Z" fill="#090909"/>
<path d="M104.397 73.6835C103.275 73.6835 102.417 72.9035 102.417 71.8835V68.883C102.417 67.8628 103.275 67.0828 104.397 67.0828C105.519 67.0828 106.377 67.8628 106.377 68.883V71.8835C106.377 72.9035 105.519 73.6835 104.397 73.6835Z" fill="#090909"/>
<path d="M38.7251 56.6876L36.1701 55.7656L36.0993 58.2639L35.7064 72.1276L35.7061 72.138L35.706 72.1492C35.6141 78.4303 38.0772 82.0555 40.1156 83.3399C42.2829 85.4231 45.8757 86.9176 49.9747 87.8803C54.2584 88.8864 59.3735 89.3769 64.6841 89.2422H64.6936H64.7031C72.4391 88.9771 77.1785 88.1043 80.4033 87.0745C82.7103 86.3385 84.361 85.4483 85.4861 84.8413C85.8783 84.6299 86.206 84.4527 86.4761 84.3285L86.671 84.2385L86.8391 84.1115C89.641 81.9871 91.1283 80.1808 91.8996 78.4276C92.5082 77.0434 92.6233 75.7303 92.7108 74.7236C92.7308 74.501 92.7484 74.2938 92.7707 74.1041L92.7814 74.0113L92.7806 73.9178C92.7753 72.0194 92.7093 68.2435 92.6525 64.9801C92.6356 64.0029 92.6195 63.0715 92.6057 62.2504C92.5612 59.5673 89.5658 57.7017 86.7931 58.6666L65.8114 65.9665C65.3622 66.1229 64.8649 66.1201 64.4178 65.9587L38.7251 56.6876Z" fill="white" stroke="#090909" stroke-width="5"/>
</g>
</g>
<defs>
<clipPath id="clip0_1_272">
<rect width="132" height="120" fill="white"/>
</clipPath>
</defs>
</svg>
