<svg width="124" height="121" viewBox="0 0 124 121" fill="none" xmlns="http://www.w3.org/2000/svg">
<g clip-path="url(#clip0_1_242)">
<path d="M62 120.922C96.2417 120.922 124 94.059 124 60.9219C124 27.7848 96.2417 0.921875 62 0.921875C27.7583 0.921875 0 27.7848 0 60.9219C0 94.059 27.7583 120.922 62 120.922Z" fill="#FFE1E0"/>
<mask id="mask0_1_242" style="mask-type:alpha" maskUnits="userSpaceOnUse" x="0" y="0" width="124" height="121">
<path d="M62 120.922C96.2417 120.922 124 94.059 124 60.9219C124 27.7848 96.2417 0.921875 62 0.921875C27.7583 0.921875 0 27.7848 0 60.9219C0 94.059 27.7583 120.922 62 120.922Z" fill="#F0ECE8"/>
</mask>
<g mask="url(#mask0_1_242)">
<path d="M89.3831 50.7688V41.7635C89.3831 34.7183 83.5263 29.0503 76.2463 29.0503C68.9663 29.0503 63.1094 34.7183 63.1094 41.7635V50.7688" fill="#FF0808"/>
<path d="M57.0883 74.6054C67.669 74.6054 76.2463 66.3049 76.2463 56.0655C76.2463 45.826 67.669 37.5254 57.0883 37.5254C46.5075 37.5254 37.9301 45.826 37.9301 56.0655C37.9301 66.3049 46.5075 74.6054 57.0883 74.6054Z" fill="#FF0808"/>
<path d="M94.8571 50.2388H29.1721L34.0437 87.9547C34.3721 90.6031 36.7258 92.6166 39.4627 92.6166H84.5117C87.2484 92.6166 89.6022 90.6031 89.931 87.9547L94.8571 50.2388Z" fill="white"/>
<path d="M45.5933 83.6112C44.7723 83.6112 44.0607 83.0287 43.9512 82.234L41.2143 61.0453C41.1048 60.1977 41.7617 59.4032 42.6375 59.2972C43.5133 59.1913 44.3344 59.8269 44.4438 60.6745L47.1808 81.8635C47.2902 82.7105 46.6334 83.5052 45.7576 83.6112C45.7028 83.6112 45.6481 83.6112 45.5933 83.6112Z" fill="#090909"/>
<path d="M56.5409 83.6112C55.6103 83.6112 54.8987 82.9226 54.8987 82.0219V60.8333C54.8987 59.9328 55.6103 59.2441 56.5409 59.2441C57.4714 59.2441 58.183 59.9328 58.183 60.8333V82.0219C58.183 82.9226 57.4714 83.6112 56.5409 83.6112Z" fill="#090909"/>
<path d="M67.4884 83.6112C66.5579 83.6112 65.8463 82.9226 65.8463 82.0219V60.8333C65.8463 59.9328 66.5579 59.2441 67.4884 59.2441C68.419 59.2441 69.1306 59.9328 69.1306 60.8333V82.0219C69.1306 82.9226 68.419 83.6112 67.4884 83.6112Z" fill="#090909"/>
<path d="M78.4358 83.6112C78.381 83.6112 78.3262 83.6112 78.2166 83.6112C77.3414 83.5052 76.6846 82.7105 76.7935 81.8635L79.5309 60.6745C79.6404 59.8269 80.4609 59.1913 81.3368 59.2972C82.2127 59.4032 82.8695 60.1977 82.7599 61.0453L80.0233 82.234C79.9685 83.0287 79.2569 83.6112 78.4358 83.6112Z" fill="#090909"/>
<path d="M42.8565 42.2933H38.4775C33.3321 42.2933 29.1721 38.2674 29.1721 33.288V29.0503H33.5511C38.6964 29.0503 42.8565 33.0762 42.8565 38.0555V42.2933Z" fill="#FF0808"/>
<path d="M96.0618 49.1794C95.733 48.8615 95.2954 48.6497 94.8571 48.6497H91.0254V41.7633C91.0254 33.8705 84.4022 27.4609 76.2463 27.4609C72.6337 27.4609 69.1306 28.7322 66.4484 31.063C65.7916 31.6457 65.7369 32.6521 66.3389 33.2878C66.941 33.9235 67.981 33.9764 68.6379 33.3938C70.7179 31.6457 73.4001 30.6392 76.2463 30.6392C81.2279 30.6392 85.4973 33.7646 87.0848 38.0553L80.352 43.5114C79.6404 44.0941 79.5856 45.1005 80.1328 45.7362C80.4616 46.107 80.8992 46.3189 81.3916 46.3189C81.7751 46.3189 82.1579 46.213 82.4319 45.9481L87.6867 41.6574C87.6867 41.7103 87.6867 41.7103 87.6867 41.7633V48.6497H40.7765C43.7323 42.8228 49.7535 39.1148 56.5409 39.1148C57.4715 39.1148 58.183 38.4261 58.183 37.5256C58.183 36.625 57.4715 35.9364 56.5409 35.9364C52.1072 35.9364 47.9471 37.2607 44.4986 39.6444V38.0553C44.4986 32.2284 39.5723 27.4609 33.5511 27.4609H29.1721C28.2416 27.4609 27.53 28.1495 27.53 29.0501V33.2878C27.53 39.1148 32.4563 43.8822 38.4775 43.8822H39.9554C38.8607 45.3124 37.8754 46.9016 37.1638 48.6497H29.1721C28.6795 48.6497 28.2416 48.8615 27.9679 49.1794C27.6942 49.4972 27.4752 49.974 27.53 50.4507L32.4016 88.1669C32.8395 91.6099 35.9048 94.2053 39.4628 94.2053H84.5118C88.0695 94.2053 91.1349 91.6099 91.5733 88.1669L96.4446 50.4507C96.5542 49.974 96.3898 49.5501 96.0618 49.1794ZM30.8142 33.2878V30.6392H33.5511C37.7659 30.6392 41.2143 33.9764 41.2143 38.0553V40.7038H38.4775C34.2627 40.7038 30.8142 37.3667 30.8142 33.2878ZM88.3435 87.7958C88.1243 89.6502 86.4821 91.0274 84.5665 91.0274H39.4628C37.547 91.0274 35.9048 89.6502 35.6859 87.7958L31.0332 51.828H92.9964L88.3435 87.7958Z" fill="#090909"/>
</g>
</g>
<defs>
<clipPath id="clip0_1_242">
<rect width="124" height="120" fill="white" transform="translate(0 0.921875)"/>
</clipPath>
</defs>
</svg>
