<svg width="123" height="112" viewBox="0 0 123 112" fill="none" xmlns="http://www.w3.org/2000/svg">
<g clip-path="url(#clip0_1_230)">
<path d="M61.5 111.922C95.4655 111.922 123 87.0737 123 56.4219C123 25.7701 95.4655 0.921875 61.5 0.921875C27.5345 0.921875 0 25.7701 0 56.4219C0 87.0737 27.5345 111.922 61.5 111.922Z" fill="#FFE1E0"/>
<mask id="mask0_1_230" style="mask-type:alpha" maskUnits="userSpaceOnUse" x="0" y="0" width="123" height="112">
<path d="M61.5 111.922C95.4655 111.922 123 87.0737 123 56.4219C123 25.7701 95.4655 0.921875 61.5 0.921875C27.5345 0.921875 0 25.7701 0 56.4219C0 87.0737 27.5345 111.922 61.5 111.922Z" fill="#F0ECE8"/>
</mask>
<g mask="url(#mask0_1_230)">
<path d="M75.3504 35.5615C75.3454 35.5615 75.3411 35.5615 75.3368 35.5615C75.3354 35.5615 75.3332 35.5615 75.3318 35.5615C75.3297 35.5615 75.3282 35.5615 75.3268 35.5615C74.3163 35.5631 73.3066 35.643 72.3133 35.786C71.6068 35.8912 70.9132 36.0328 70.2341 36.2075C77.9177 38.1985 83.5864 44.3549 83.5864 51.7708C83.5864 56.8313 80.869 58.808 76.752 64.2646L61.5065 81.9758L87.0912 64.2639C91.2088 61.2592 93.9248 56.8313 93.9248 51.7708C93.9248 42.7568 85.5136 35.5615 75.3504 35.5615Z" fill="#FF0808"/>
<path d="M61.5333 38.7897C57.9831 35.7667 53.0637 33.9482 47.6628 33.9482C36.3872 33.9482 27.3 41.8999 27.3 51.7709C27.3 57.4508 30.398 62.5791 35.282 65.8673L60.4188 83.2562L61.5068 84.0087L62.5945 83.2556L88.1788 65.5447L88.1824 65.5427C92.8092 62.3239 95.7126 57.3517 95.7126 51.7709C95.7126 41.8061 86.4347 33.9482 75.3503 33.9482C70.0772 33.9482 65.1843 35.7826 61.5333 38.7897Z" fill="#FF0808" stroke="#090909" stroke-width="5"/>
<path d="M47.6627 40.3848C40.4781 40.3848 34.6953 45.5243 34.6953 51.77C34.6953 53.1142 35.8343 54.1421 37.3239 54.1421C38.8133 54.1421 39.9523 53.1142 39.9523 51.77C39.9523 48.1328 43.4571 45.129 47.6627 45.129C49.1522 45.129 50.2913 44.1011 50.2913 42.7569C50.2913 41.4127 49.1522 40.3848 47.6627 40.3848Z" fill="white"/>
</g>
</g>
<defs>
<clipPath id="clip0_1_230">
<rect width="123" height="111" fill="white" transform="translate(0 0.921875)"/>
</clipPath>
</defs>
</svg>
